<svg width="64" height="39" viewBox="0 0 64 39" fill="none" xmlns="http://www.w3.org/2000/svg">
<path d="M11.3866 3.47391C12.05 1.40413 13.9745 0 16.148 0H56.6469C60.0354 0 62.4425 3.29932 61.4083 6.52609L52.1134 35.5261C51.45 37.5959 49.5255 39 47.352 39H6.85311C3.46465 39 1.05747 35.7007 2.0917 32.4739L11.3866 3.47391Z" fill="#3EE8BF"/>
<path d="M38.8104 24.9849H25.6956C24.9289 24.9785 24.1923 24.6857 23.6306 24.1639C23.0689 23.6422 22.7226 22.9292 22.6598 22.1652L21.5557 9.09819L19.7438 8.78621C19.5096 8.74232 19.302 8.60853 19.1652 8.41343C19.0284 8.21834 18.9735 7.97743 19.012 7.7423C19.0587 7.50955 19.1932 7.30367 19.3876 7.16739C19.5819 7.03111 19.8211 6.97491 20.0558 7.01037L22.5517 7.44232C22.7478 7.47827 22.9268 7.5775 23.0611 7.72487C23.1955 7.87224 23.278 8.05968 23.2958 8.25832L23.5717 11.618C40.6943 11.618 40.7542 11.618 40.8382 11.618C41.1656 11.6636 41.4806 11.7734 41.7654 11.9412C42.0501 12.109 42.299 12.3315 42.4974 12.5958C42.6959 12.8601 42.8401 13.161 42.9219 13.4812C43.0037 13.8015 43.0215 14.1346 42.9741 14.4617L41.8342 22.3332C41.7285 23.0628 41.3659 23.7308 40.8115 24.2169C40.2572 24.7031 39.5477 24.9754 38.8104 24.9849ZM23.7276 13.4178L24.4476 22.0212C24.4474 22.1839 24.4803 22.3451 24.5443 22.4947C24.6083 22.6444 24.7021 22.7793 24.82 22.8915C24.9378 23.0038 25.0772 23.0909 25.2298 23.1476C25.3824 23.2042 25.5447 23.2292 25.7073 23.2211H38.7984C39.0918 23.2055 39.371 23.0898 39.5894 22.8933C39.8077 22.6967 39.9521 22.4313 39.9983 22.1411L41.1982 14.2698C41.2237 14.0834 41.1763 13.8943 41.0661 13.7418C41.0122 13.6652 40.9426 13.601 40.8619 13.5535C40.7812 13.5059 40.6914 13.476 40.5983 13.4659H23.7396L23.7276 13.4178Z" fill="#145545"/>
<path d="M36.8785 17.8455H33.5547C33.316 17.8455 33.0872 17.7506 32.9184 17.5819C32.7497 17.4131 32.6548 17.1843 32.6548 16.9456C32.6548 16.7069 32.7497 16.4779 32.9184 16.3092C33.0872 16.1404 33.316 16.0457 33.5547 16.0457H36.8785C37.1171 16.0457 37.346 16.1404 37.5147 16.3092C37.6835 16.4779 37.7784 16.7069 37.7784 16.9456C37.7784 17.1843 37.6835 17.4131 37.5147 17.5819C37.346 17.7506 37.1171 17.8455 36.8785 17.8455Z" fill="#145545"/>
<path d="M25.1794 28.2368C25.266 28.2368 25.3518 28.2539 25.4319 28.2871C25.512 28.3202 25.5847 28.3687 25.646 28.43C25.7073 28.4913 25.7561 28.5641 25.7893 28.6442C25.8224 28.7242 25.8394 28.81 25.8394 28.8967C25.8179 29.0549 25.7399 29.2 25.6197 29.305C25.4994 29.4101 25.3452 29.4679 25.1855 29.4679C25.0259 29.4679 24.8716 29.4101 24.7514 29.305C24.6311 29.2 24.5529 29.0549 24.5314 28.8967C24.5313 28.7237 24.5994 28.5577 24.7206 28.4343C24.8418 28.3108 25.0064 28.24 25.1794 28.2368Z" fill="#145545"/>
<path d="M25.1795 30.4445C24.871 30.4445 24.5695 30.353 24.313 30.1816C24.0564 30.0102 23.8566 29.7666 23.7385 29.4816C23.6204 29.1966 23.5895 28.8829 23.6497 28.5804C23.7099 28.2778 23.8584 27.9998 24.0765 27.7816C24.2947 27.5635 24.5725 27.4149 24.8751 27.3547C25.1777 27.2945 25.4915 27.3254 25.7765 27.4434C26.0615 27.5615 26.3052 27.7615 26.4766 28.0181C26.648 28.2746 26.7394 28.5761 26.7394 28.8846C26.7394 29.0894 26.6992 29.2924 26.6208 29.4816C26.5424 29.6709 26.4273 29.8428 26.2824 29.9877C26.1376 30.1325 25.9658 30.2473 25.7765 30.3257C25.5873 30.4041 25.3843 30.4445 25.1795 30.4445ZM25.1795 28.6447C25.1469 28.6446 25.1148 28.6512 25.0849 28.664C25.0549 28.6768 25.0279 28.6955 25.0055 28.7191C24.983 28.7426 24.9655 28.7706 24.9542 28.8011C24.9429 28.8316 24.9379 28.8641 24.9396 28.8966C24.941 28.9261 24.9485 28.9549 24.9615 28.9814C24.9746 29.0079 24.9929 29.0314 25.0154 29.0505C25.0379 29.0697 25.064 29.084 25.0922 29.0926C25.1204 29.1012 25.1502 29.1039 25.1795 29.1006C25.2079 29.104 25.2367 29.1016 25.2641 29.0938C25.2916 29.0859 25.3174 29.0726 25.3397 29.0548C25.362 29.0369 25.3805 29.0148 25.3942 28.9898C25.4079 28.9647 25.4164 28.937 25.4194 28.9086C25.4194 28.8755 25.413 28.8428 25.4004 28.8122C25.3877 28.7817 25.3693 28.7539 25.3459 28.7305C25.3225 28.7071 25.2944 28.6885 25.2639 28.6759C25.2333 28.6632 25.2006 28.6567 25.1675 28.6567L25.1795 28.6447Z" fill="#145545"/>
<path d="M38.7264 28.2368C38.8993 28.24 39.0642 28.3108 39.1854 28.4343C39.3066 28.5577 39.3744 28.7237 39.3743 28.8967C39.3529 29.0549 39.2749 29.2 39.1546 29.305C39.0344 29.4101 38.8801 29.4679 38.7205 29.4679C38.5608 29.4679 38.4066 29.4101 38.2863 29.305C38.1661 29.2 38.0878 29.0549 38.0663 28.8967C38.0663 28.7237 38.1344 28.5577 38.2556 28.4343C38.3768 28.3108 38.5414 28.24 38.7143 28.2368" fill="#145545"/>
<path d="M38.7144 30.4445C38.4059 30.4445 38.1044 30.353 37.8479 30.1816C37.5913 30.0102 37.3915 29.7666 37.2734 29.4816C37.1553 29.1966 37.1244 28.8829 37.1846 28.5804C37.2448 28.2778 37.3933 27.9998 37.6115 27.7816C37.8296 27.5635 38.1074 27.4149 38.41 27.3547C38.7126 27.2945 39.0264 27.3254 39.3114 27.4434C39.5964 27.5615 39.8402 27.7615 40.0116 28.0181C40.183 28.2746 40.2743 28.5761 40.2743 28.8846C40.2743 29.0894 40.2341 29.2924 40.1557 29.4816C40.0773 29.6709 39.9622 29.8428 39.8173 29.9877C39.6725 30.1325 39.5007 30.2473 39.3114 30.3257C39.1222 30.4041 38.9192 30.4445 38.7144 30.4445ZM38.7144 28.6447C38.6508 28.6447 38.5898 28.67 38.5448 28.715C38.4998 28.76 38.4745 28.8209 38.4745 28.8846C38.4806 28.9429 38.5089 28.9967 38.5536 29.0347C38.5983 29.0727 38.6558 29.092 38.7144 29.0886C38.7853 29.0902 38.8539 29.0643 38.9063 29.0166C38.923 28.9741 38.923 28.927 38.9063 28.8846C38.9052 28.829 38.8859 28.7754 38.8512 28.732C38.8165 28.6886 38.7684 28.6579 38.7144 28.6447Z" fill="#145545"/>
</svg>
