<svg width="24" height="24" viewBox="0 0 24 24" fill="none" xmlns="http://www.w3.org/2000/svg">
<path d="M19.8104 17.9849H6.69557C5.92895 17.9785 5.19232 17.6857 4.6306 17.1639C4.06888 16.6422 3.72264 15.9292 3.65978 15.1652L2.55567 2.09819L0.743805 1.78621C0.509606 1.74232 0.302031 1.60853 0.165239 1.41343C0.0284457 1.21834 -0.0265356 0.977432 0.0120282 0.742297C0.0586902 0.50955 0.193221 0.30367 0.387584 0.167392C0.581947 0.0311149 0.821077 -0.0250859 1.05579 0.0103739L3.55168 0.442322C3.74785 0.478269 3.92675 0.577499 4.06112 0.724867C4.19548 0.872236 4.27804 1.05968 4.29577 1.25832L4.57172 4.61796C21.6943 4.61796 21.7542 4.61796 21.8382 4.61796C22.1656 4.66356 22.4806 4.77342 22.7654 4.94123C23.0501 5.10903 23.299 5.33153 23.4974 5.59581C23.6959 5.86009 23.8401 6.16101 23.9219 6.48124C24.0037 6.80147 24.0215 7.13463 23.9741 7.46173L22.8342 15.3332C22.7285 16.0628 22.3659 16.7308 21.8115 17.2169C21.2572 17.7031 20.5477 17.9754 19.8104 17.9849ZM4.72757 6.41782L5.44763 15.0212C5.44742 15.1839 5.48028 15.3451 5.5443 15.4947C5.60832 15.6444 5.7021 15.7793 5.81996 15.8915C5.93781 16.0038 6.07721 16.0909 6.22979 16.1476C6.38237 16.2042 6.54474 16.2292 6.70729 16.2211H19.7984C20.0918 16.2055 20.371 16.0898 20.5894 15.8933C20.8077 15.6967 20.9521 15.4313 20.9983 15.1411L22.1982 7.26985C22.2237 7.08344 22.1763 6.8943 22.0661 6.74181C22.0122 6.66524 21.9426 6.60103 21.8619 6.55345C21.7812 6.50587 21.6914 6.47602 21.5983 6.46586H4.73958L4.72757 6.41782Z" fill="#646464"/>
<path d="M17.8784 10.8455H14.5547C14.316 10.8455 14.0872 10.7506 13.9184 10.5819C13.7496 10.4131 13.6548 10.1843 13.6548 9.94558C13.6548 9.70691 13.7496 9.47793 13.9184 9.30916C14.0872 9.14039 14.316 9.04565 14.5547 9.04565H17.8784C18.1171 9.04565 18.3459 9.14039 18.5147 9.30916C18.6835 9.47793 18.7784 9.70691 18.7784 9.94558C18.7784 10.1843 18.6835 10.4131 18.5147 10.5819C18.3459 10.7506 18.1171 10.8455 17.8784 10.8455Z" fill="#646464"/>
<path d="M6.1794 21.2368C6.26606 21.2368 6.35185 21.2539 6.43192 21.2871C6.51198 21.3202 6.58478 21.3687 6.64606 21.43C6.70734 21.4913 6.75614 21.5641 6.78931 21.6442C6.82247 21.7242 6.8394 21.81 6.8394 21.8967C6.81792 22.0549 6.73994 22.2 6.61969 22.305C6.49945 22.4101 6.3452 22.4679 6.18555 22.4679C6.0259 22.4679 5.87165 22.4101 5.7514 22.305C5.63116 22.2 5.55288 22.0549 5.5314 21.8967C5.53137 21.7237 5.59946 21.5577 5.72065 21.4343C5.84183 21.3108 6.00646 21.24 6.1794 21.2368Z" fill="#646464"/>
<path d="M6.17948 23.4445C5.87097 23.4445 5.56947 23.353 5.31295 23.1816C5.05643 23.0102 4.85655 22.7666 4.73849 22.4816C4.62042 22.1966 4.58954 21.8829 4.64973 21.5804C4.70991 21.2778 4.85839 20.9998 5.07655 20.7816C5.2947 20.5635 5.57253 20.4149 5.87511 20.3547C6.1777 20.2945 6.49148 20.3254 6.77651 20.4434C7.06154 20.5615 7.30525 20.7615 7.47665 21.0181C7.64805 21.2746 7.73942 21.5761 7.73942 21.8846C7.73942 22.0894 7.69917 22.2924 7.62078 22.4816C7.54238 22.6709 7.42727 22.8428 7.28242 22.9877C7.13758 23.1325 6.96576 23.2473 6.77651 23.3257C6.58725 23.4041 6.38433 23.4445 6.17948 23.4445ZM6.17948 21.6447C6.14693 21.6446 6.11479 21.6512 6.08486 21.664C6.05494 21.6768 6.02792 21.6955 6.00548 21.7191C5.98303 21.7426 5.96554 21.7706 5.95421 21.8011C5.94288 21.8316 5.93794 21.8641 5.93956 21.8966C5.94102 21.9261 5.94849 21.9549 5.96153 21.9814C5.97458 22.0079 5.99295 22.0314 6.01544 22.0505C6.03792 22.0697 6.06396 22.084 6.09219 22.0926C6.12042 22.1012 6.15016 22.1039 6.17948 22.1006C6.20788 22.104 6.23666 22.1016 6.26415 22.0938C6.29163 22.0859 6.3174 22.0726 6.33973 22.0548C6.36205 22.0369 6.3805 22.0148 6.39421 21.9898C6.40793 21.9647 6.41643 21.937 6.41941 21.9086C6.41941 21.8755 6.41303 21.8428 6.40037 21.8122C6.3877 21.7817 6.36928 21.7539 6.34588 21.7305C6.32248 21.7071 6.29442 21.6885 6.26385 21.6759C6.23328 21.6632 6.20056 21.6567 6.16747 21.6567L6.17948 21.6447Z" fill="#646464"/>
<path d="M19.7264 21.2368C19.8993 21.24 20.0642 21.3108 20.1854 21.4343C20.3066 21.5577 20.3744 21.7237 20.3743 21.8967C20.3529 22.0549 20.2749 22.2 20.1546 22.305C20.0344 22.4101 19.8801 22.4679 19.7205 22.4679C19.5608 22.4679 19.4066 22.4101 19.2863 22.305C19.1661 22.2 19.0878 22.0549 19.0663 21.8967C19.0663 21.7237 19.1344 21.5577 19.2556 21.4343C19.3768 21.3108 19.5414 21.24 19.7143 21.2368" fill="#646464"/>
<path d="M19.7144 23.4445C19.4059 23.4445 19.1044 23.353 18.8479 23.1816C18.5914 23.0102 18.3915 22.7666 18.2734 22.4816C18.1554 22.1966 18.1245 21.8829 18.1847 21.5804C18.2449 21.2778 18.3933 20.9998 18.6115 20.7816C18.8296 20.5635 19.1075 20.4149 19.4101 20.3547C19.7126 20.2945 20.0264 20.3254 20.3114 20.4434C20.5965 20.5615 20.8402 20.7615 21.0116 21.0181C21.183 21.2746 21.2744 21.5761 21.2744 21.8846C21.2744 22.0894 21.2341 22.2924 21.1557 22.4816C21.0773 22.6709 20.9622 22.8428 20.8174 22.9877C20.6725 23.1325 20.5007 23.2473 20.3114 23.3257C20.1222 23.4041 19.9193 23.4445 19.7144 23.4445ZM19.7144 21.6447C19.6508 21.6447 19.5898 21.67 19.5448 21.715C19.4998 21.76 19.4745 21.8209 19.4745 21.8846C19.4806 21.9429 19.5089 21.9967 19.5536 22.0347C19.5983 22.0727 19.6559 22.092 19.7144 22.0886C19.7853 22.0902 19.8539 22.0643 19.9063 22.0166C19.923 21.9741 19.923 21.927 19.9063 21.8846C19.9053 21.829 19.886 21.7754 19.8512 21.732C19.8165 21.6886 19.7684 21.6579 19.7144 21.6447Z" fill="#646464"/>
</svg>
