<svg width="20" height="20" viewBox="0 0 20 20" fill="none" xmlns="http://www.w3.org/2000/svg">
<path d="M4.25088 8.42999C2.56088 8.42999 1.25098 8.24999 0.600982 7.42999C-0.0490181 6.60999 0.00088415 5.66 0.00088415 4.25H0.750884H0.00088415C0.00088415 1.38 0.180884 0 4.25088 0C8.32088 0 8.50088 1.38 8.50088 4.25C8.50088 5.68 8.50103 6.71002 7.90103 7.46002C7.30103 8.21002 5.94088 8.42999 4.25088 8.42999ZM4.25088 1.42999C1.50088 1.42999 1.50088 1.63999 1.50088 4.17999C1.3992 4.93747 1.49214 5.70842 1.7709 6.42004C2.0409 6.75004 2.77088 6.90002 4.25088 6.90002C5.73088 6.90002 6.46086 6.75004 6.73086 6.42004C7.00919 5.70831 7.10212 4.93748 7.00088 4.17999C7.00088 1.63999 7.00088 1.42999 4.25088 1.42999Z" fill="white"/>
<path d="M15.2509 8.42999C13.5609 8.42999 12.251 8.24999 11.601 7.42999C10.951 6.60999 11.0009 5.66 11.0009 4.25H11.7509H11.0009C11.0009 1.38 11.1809 0 15.2509 0C19.3209 0 19.5009 1.38 19.5009 4.25C19.5009 5.68 19.501 6.71002 18.901 7.46002C18.301 8.21002 16.9409 8.42999 15.2509 8.42999ZM15.2509 1.42999C12.5009 1.42999 12.5009 1.63999 12.5009 4.17999C12.3992 4.93747 12.4921 5.70842 12.7709 6.42004C13.0409 6.75004 13.7709 6.90002 15.2509 6.90002C16.7309 6.90002 17.4609 6.75004 17.7309 6.42004C18.0092 5.70831 18.1021 4.93748 18.0009 4.17999C18.0009 1.63999 18.0009 1.42999 15.2509 1.42999Z" fill="white"/>
<path d="M4.25088 19.43C2.56088 19.43 1.25098 19.25 0.600982 18.43C-0.0490181 17.61 0.00088415 16.66 0.00088415 15.25H0.750884H0.00088415C0.00088415 12.38 0.180884 11 4.25088 11C8.32088 11 8.50088 12.38 8.50088 15.25C8.50088 16.68 8.50103 17.71 7.90103 18.46C7.30103 19.21 5.94088 19.43 4.25088 19.43ZM4.25088 12.43C1.50088 12.43 1.50088 12.64 1.50088 15.18C1.3992 15.9375 1.49214 16.7084 1.7709 17.42C2.0409 17.75 2.77088 17.9 4.25088 17.9C5.73088 17.9 6.46086 17.75 6.73086 17.42C7.00919 16.7083 7.10212 15.9375 7.00088 15.18C7.00088 12.64 7.00088 12.43 4.25088 12.43Z" fill="white"/>
<path d="M15.2509 19.43C13.5609 19.43 12.251 19.25 11.601 18.43C10.951 17.61 11.0009 16.66 11.0009 15.25H11.7509H11.0009C11.0009 12.38 11.1809 11 15.2509 11C19.3209 11 19.5009 12.38 19.5009 15.25C19.5009 16.68 19.501 17.71 18.901 18.46C18.301 19.21 16.9409 19.43 15.2509 19.43ZM15.2509 12.43C12.5009 12.43 12.5009 12.64 12.5009 15.18C12.3992 15.9375 12.4921 16.7084 12.7709 17.42C13.0409 17.75 13.7709 17.9 15.2509 17.9C16.7309 17.9 17.4609 17.75 17.7309 17.42C18.0092 16.7083 18.1021 15.9375 18.0009 15.18C18.0009 12.64 18.0009 12.43 15.2509 12.43Z" fill="white"/>
</svg>
