<svg width="21" height="22" viewBox="0 0 21 22" fill="none" xmlns="http://www.w3.org/2000/svg">
<path d="M16.28 21.5099H14.3501C13.8284 21.4969 13.3323 21.2805 12.968 20.9068C12.6037 20.5331 12.4 20.0318 12.4001 19.5099V16.43C12.3975 16.2514 12.3248 16.0809 12.1975 15.9556C12.0703 15.8302 11.8988 15.7599 11.7202 15.7599H8.83008C8.65238 15.7599 8.48209 15.8305 8.35645 15.9562C8.2308 16.0818 8.16016 16.2523 8.16016 16.43V19.4999C8.16987 19.5696 8.16987 19.6403 8.16016 19.71C8.10348 20.1996 7.86789 20.6511 7.49878 20.9777C7.12967 21.3044 6.65304 21.4832 6.16016 21.48H4.22998C3.11514 21.4826 2.04478 21.043 1.25366 20.2575C0.462545 19.472 0.0153027 18.4048 0.0100098 17.29V8.64996C0.0138616 8.16446 0.129629 7.68637 0.348145 7.25281C0.56666 6.81924 0.882057 6.44187 1.27002 6.14996L7.80005 0.909973C8.49293 0.35662 9.35326 0.0551758 10.24 0.0551758C11.1267 0.0551758 11.9873 0.35662 12.6802 0.909973L19.27 6.14996C19.6505 6.44289 19.9598 6.81817 20.1746 7.24768C20.3893 7.6772 20.504 8.14977 20.51 8.62994V17.3699C20.4916 18.4778 20.0372 19.5338 19.2454 20.3088C18.4535 21.0838 17.388 21.5154 16.28 21.5099ZM8.83008 14.29H11.7202C12.2967 14.29 12.8495 14.5183 13.2581 14.9249C13.6666 15.3316 13.8975 15.8835 13.9001 16.46V19.54C13.9001 19.6646 13.9497 19.7842 14.0378 19.8723C14.126 19.9605 14.2455 20.0099 14.3701 20.0099H16.28C16.9963 20.01 17.6836 19.7276 18.1929 19.2239C18.7021 18.7203 18.9921 18.0361 19 17.3199V8.58997C18.9958 8.33636 18.9331 8.08716 18.8169 7.86169C18.7007 7.63623 18.5342 7.44059 18.3301 7.28998L11.74 2.02997C11.3128 1.69255 10.7844 1.50903 10.24 1.50903C9.69563 1.50903 9.16717 1.69255 8.73999 2.02997L2.19019 7.27997C1.98414 7.43627 1.81597 7.63704 1.69824 7.86731C1.58051 8.09758 1.51607 8.35144 1.51001 8.60999V17.3199C1.51791 18.0361 1.80814 18.7203 2.31738 19.2239C2.82663 19.7276 3.51376 20.01 4.22998 20.0099H6.16016C6.2884 20.01 6.41156 19.9597 6.50317 19.87C6.59478 19.7803 6.64753 19.6582 6.65015 19.53C6.63981 19.4738 6.63981 19.4162 6.65015 19.36V16.46C6.65279 15.8835 6.88369 15.3316 7.29224 14.9249C7.70078 14.5183 8.25363 14.29 8.83008 14.29Z" fill="#88591F"/>
</svg>
