<svg width="16" height="20" viewBox="0 0 16 20" fill="none" xmlns="http://www.w3.org/2000/svg">
<path d="M7.92017 19.87C5.92017 19.87 0 19.87 0 16.17C0 12.88 4.52017 12.5 7.92017 12.5C9.92017 12.5 15.8401 12.5001 15.8401 16.2001C15.8401 19.4901 11.3202 19.87 7.92017 19.87ZM7.92017 14C3.66017 14 1.5 14.73 1.5 16.17C1.5 17.61 3.66017 18.37 7.92017 18.37C12.1802 18.37 14.3401 17.6401 14.3401 16.2001C14.3401 14.7601 12.1802 14 7.92017 14Z" fill="#646464"/>
<path d="M7.92021 10.65C6.87128 10.6441 5.84758 10.3277 4.97831 9.74062C4.10904 9.15356 3.43299 8.32212 3.03568 7.35134C2.63838 6.38056 2.53763 5.31384 2.74589 4.28579C2.95415 3.25773 3.4623 2.31447 4.20609 1.57485C4.94989 0.835233 5.89588 0.332495 6.92509 0.130027C7.9543 -0.0724404 9.02052 0.0343885 9.98905 0.437156C10.9576 0.839924 11.7851 1.52053 12.3672 2.39309C12.9494 3.26565 13.26 4.29105 13.26 5.33999C13.2614 6.04276 13.1232 6.7388 12.8531 7.3876C12.5829 8.03639 12.1865 8.62502 11.6868 9.11916C11.1871 9.6133 10.594 10.0031 9.94218 10.2659C9.29039 10.5287 8.59289 10.6593 7.89018 10.65H7.92021ZM7.92021 1.46011C6.89117 1.46011 5.90419 1.86882 5.17655 2.59646C4.44891 3.3241 4.04008 4.31095 4.04008 5.33999C4.04008 6.36903 4.44891 7.356 5.17655 8.08364C5.90419 8.81128 6.89117 9.21999 7.92021 9.21999V9.94009V9.21999C8.94924 9.21999 9.93597 8.81128 10.6636 8.08364C11.3913 7.356 11.8001 6.36903 11.8001 5.33999C11.8001 4.31095 11.3913 3.3241 10.6636 2.59646C9.93597 1.86882 8.94924 1.46011 7.92021 1.46011Z" fill="#646464"/>
</svg>
