<svg width="104" height="50" viewBox="0 0 104 50" fill="none" xmlns="http://www.w3.org/2000/svg">
<g clip-path="url(#clip0_211_9)">
<path d="M11.2516 13.3088H18.4853V26.3337C18.4853 28.3266 19.2702 29.8035 21.464 29.8035C23.6578 29.8035 24.5406 28.3353 24.5406 26.3337V13.3088H31.7742V26.3337C31.7742 33.1583 27.0931 36.652 21.2988 36.652C15.5044 36.652 11.2516 33.1583 11.2516 26.3337V13.3088Z" fill="white"/>
<path d="M49.7769 32.9285H42.0518L40.906 36.4221H33.2788L41.7583 13.3088H50.1378L58.5825 36.4221H50.9227L49.7769 32.9285ZM45.922 21.0465L43.8282 27.4765H48.0092L45.922 21.0465Z" fill="white"/>
<path d="M60.087 13.3088H67.3207V26.3337C67.3207 28.3266 68.1078 29.8035 70.2994 29.8035C72.491 29.8035 73.3759 28.3353 73.3759 26.3337V13.3088H80.6118V26.3337C80.6118 33.1583 75.9307 36.652 70.1363 36.652C64.342 36.652 60.087 33.1583 60.087 26.3337V13.3088Z" fill="white"/>
<path d="M100.597 12.5564L91.0851 36.4222H83.6231L91.1459 18.7609H82.7056V12.5564H100.597Z" fill="white"/>
<path d="M103.419 1.47684C103.111 1.022 102.695 0.649538 102.209 0.392072C101.723 0.134606 101.181 -1.5473e-05 100.63 1.33389e-09H3.37006C2.92731 -9.05715e-08 2.48891 0.0870216 2.07989 0.256082C1.67087 0.425143 1.29927 0.672933 0.986299 0.985296C0.673332 1.29766 0.42514 1.66847 0.255906 2.07654C0.0866731 2.48461 -0.000284941 2.92195 7.01432e-07 3.36355V46.6364C0.00230339 47.5264 0.358378 48.3792 0.990138 49.0077C1.6219 49.6362 2.47777 49.9892 3.37006 49.9892H82.7056C83.3499 49.9902 83.981 49.8069 84.524 49.4609C85.067 49.115 85.4991 48.6209 85.7691 48.0374L89.3653 40.2108L89.2131 40.1414H81.9837L80.5444 43.2664H6.74012V6.72276H95.6531L94.8421 8.75044L94.9204 8.78296H102.095L103.756 4.60834C103.962 4.09873 104.038 3.54669 103.979 3.0007C103.921 2.4547 103.728 1.93144 103.419 1.47684V1.47684Z" fill="white"/>
</g>
<defs>
<clipPath id="clip0_211_9">
<rect width="104" height="50" fill="white"/>
</clipPath>
</defs>
</svg>
