<svg width="19" height="13" viewBox="0 0 19 13" fill="none" xmlns="http://www.w3.org/2000/svg">
<path d="M0.97438 0.16626H18.0256C18.5616 0.16626 19 0.604707 19 1.1406V11.8586C19 12.3944 18.5616 12.833 18.0256 12.833H0.974344C0.438484 12.833 -3.62396e-05 12.3945 -3.62396e-05 11.8586V1.1406C0 0.604707 0.438446 0.16626 0.97438 0.16626ZM1.34002 0.896981L8.9395 6.59705C9.07614 6.70104 9.28588 6.76609 9.50004 6.76512C9.71416 6.76609 9.92386 6.70104 10.0605 6.59705L17.66 0.896981H1.34002ZM5.39941 6.97316L1.25838 12.0886C1.25422 12.0937 1.24914 12.0976 1.24472 12.1022H17.7553C17.7509 12.0974 17.7458 12.0937 17.7416 12.0886L13.6006 6.97316C13.4737 6.8163 13.4978 6.58633 13.6549 6.45916C13.8118 6.33228 14.0417 6.35633 14.1687 6.51322L18.2692 11.5787V1.35372L10.4988 7.1816C10.2067 7.39914 9.85131 7.49488 9.50007 7.49584C9.14932 7.4951 8.79366 7.39936 8.50139 7.1816L0.730907 1.35372V11.5786L4.83138 6.51322C4.95829 6.35636 5.18848 6.33224 5.34512 6.45916C5.50224 6.58603 5.52637 6.8163 5.39941 6.97316Z" fill="#009C80"/>
</svg>
