<svg width="40" height="32" viewBox="0 0 40 32" fill="none" xmlns="http://www.w3.org/2000/svg">
<path d="M19.5834 2.20886C17.5506 0.769297 15.1094 -0.00349359 12.6059 1.18732e-05C11.0245 1.18076e-05 9.45867 0.306852 7.99771 0.903023C6.53675 1.49919 5.20929 2.37302 4.09112 3.4746C2.97295 4.57618 2.08597 5.88396 1.48082 7.32324C0.87567 8.76253 0.564209 10.3051 0.564209 11.863C0.564209 13.4209 0.87567 14.9635 1.48082 16.4028C2.08597 17.8421 2.97295 19.1498 4.09112 20.2514C5.20929 21.353 6.53675 22.2268 7.99771 22.823C9.45867 23.4192 11.0245 23.726 12.6059 23.726C15.1094 23.7295 17.5506 22.9567 19.5834 21.5172C18.0234 20.4197 16.7519 18.9711 15.8746 17.2919C14.9973 15.6128 14.5397 13.7515 14.5397 11.863C14.5397 9.97448 14.9973 8.11324 15.8746 6.43407C16.7519 4.75491 18.0234 3.30636 19.5834 2.20886Z" fill="black"/>
<path d="M27.0443 1.27745e-05C24.5347 -0.00362318 22.0874 0.768989 20.0474 2.20886C21.6111 3.30375 22.8862 4.75142 23.7661 6.43092C24.646 8.11043 25.1051 9.973 25.1051 11.863C25.1051 13.753 24.646 15.6156 23.7661 17.2951C22.8862 18.9746 21.6111 20.4223 20.0474 21.5172C21.5905 22.6028 23.372 23.314 25.2469 23.593C27.1218 23.8719 29.0371 23.7108 30.8368 23.1226C32.6365 22.5344 34.2698 21.5358 35.6037 20.2081C36.9376 18.8804 37.9343 17.2612 38.5128 15.4822C39.0913 13.7032 39.2352 11.8148 38.9327 9.97067C38.6302 8.12655 37.89 6.37887 36.7722 4.86991C35.6544 3.36095 34.1907 2.13337 32.5003 1.28712C30.8098 0.440871 28.9404 -0.000136301 27.0443 1.27745e-05Z" fill="black"/>
<path d="M6.61403 31.438V29.5338C6.62516 29.3675 6.60044 29.2008 6.54151 29.0447C6.48257 28.8885 6.39074 28.7464 6.27207 28.6277C6.1534 28.509 6.01058 28.4164 5.85298 28.3559C5.69538 28.2955 5.52658 28.2686 5.35767 28.277C5.13627 28.2663 4.91594 28.3136 4.71905 28.4139C4.52216 28.5142 4.35573 28.6641 4.23663 28.8483C4.12843 28.6673 3.97242 28.5185 3.78521 28.4179C3.59801 28.3173 3.38663 28.2686 3.17356 28.277C2.98717 28.2675 2.80151 28.3065 2.63525 28.39C2.469 28.4736 2.32802 28.5988 2.22647 28.7531V28.3532H1.53064V31.5141H2.34243V29.7623C2.32835 29.6554 2.33802 29.5469 2.37079 29.4441C2.40356 29.3413 2.45863 29.2468 2.53219 29.1671C2.60575 29.0874 2.69602 29.0244 2.79676 28.9825C2.89749 28.9406 3.00629 28.9208 3.11558 28.9244C3.57946 28.9244 3.8114 29.2291 3.8114 29.7623V31.5141H4.52655V29.7623C4.51247 29.6554 4.52215 29.5469 4.55492 29.4441C4.58769 29.3413 4.64275 29.2468 4.71631 29.1671C4.78986 29.0874 4.88015 29.0244 4.98089 28.9825C5.08162 28.9406 5.19041 28.9208 5.29969 28.9244C5.7829 28.9244 6.01485 29.2291 6.01485 29.7623V31.5141L6.61403 31.438Z" fill="black"/>
<path d="M17.0127 28.2769H15.8724V27.3248H15.1765V28.2769H14.5194V28.9053H15.1765V30.3334C15.1765 31.057 15.4665 31.495 16.2783 31.495C16.5865 31.4975 16.8887 31.4115 17.1481 31.2474L16.9548 30.6571C16.7703 30.7754 16.5563 30.8412 16.3362 30.8475C15.9883 30.8475 15.8724 30.6381 15.8724 30.3144V28.8863H17.0127V28.2769Z" fill="black"/>
<path d="M22.9466 28.2008C22.7747 28.1984 22.6052 28.2413 22.4557 28.325C22.3062 28.4087 22.1821 28.5301 22.0961 28.6768V28.277H21.4196V31.4379H22.1155V29.667C22.1155 29.1529 22.3281 28.8673 22.792 28.8673C22.9324 28.8401 23.0768 28.8401 23.2172 28.8673L23.4491 28.2198C23.2877 28.1624 23.1181 28.1303 22.9466 28.1246V28.2008Z" fill="black"/>
<path d="M13.9395 28.5436C13.5446 28.3057 13.0878 28.1866 12.6251 28.2008C11.8133 28.2008 11.2915 28.5817 11.2915 29.2101C11.2915 29.8384 11.678 30.0479 12.3932 30.1431H12.7218C13.1084 30.1431 13.2823 30.2954 13.2823 30.4859C13.2823 30.6763 13.031 30.8667 12.5672 30.8667C12.1864 30.8764 11.8129 30.7626 11.5041 30.543L11.1755 31.0762C11.5781 31.3498 12.0589 31.4899 12.5478 31.476C13.4756 31.476 14.0168 31.0571 14.0168 30.4478C14.0168 29.8384 13.5916 29.6099 12.8957 29.5147H12.5672C12.2579 29.5147 12.026 29.5147 12.026 29.2101C12.026 28.9054 12.2579 28.8292 12.6445 28.8292C12.9932 28.8351 13.3338 28.9338 13.6302 29.1149L13.9395 28.5436Z" fill="black"/>
<path d="M32.6108 28.2008C32.4409 28.1956 32.273 28.2375 32.1261 28.3216C31.9791 28.4058 31.8591 28.5289 31.7797 28.6768V28.277H31.0838V31.4379H31.7797V29.667C31.7797 29.1529 32.0116 28.8673 32.4562 28.8673C32.6032 28.8416 32.7537 28.8416 32.9007 28.8673L33.1133 28.2198C32.9519 28.1624 32.7823 28.1303 32.6108 28.1246V28.2008Z" fill="black"/>
<path d="M23.6037 29.8574C23.6175 30.1777 23.7213 30.488 23.9035 30.7537C24.0857 31.0194 24.3391 31.2301 24.6356 31.3623C24.9321 31.4945 25.26 31.5431 25.5829 31.5027C25.9057 31.4622 26.2108 31.3343 26.4643 31.1332L26.1357 30.581C25.8973 30.7623 25.6057 30.8625 25.3046 30.8666C25.1718 30.8697 25.0399 30.8453 24.9173 30.7949C24.7947 30.7445 24.6843 30.6693 24.5932 30.5741C24.502 30.479 24.4322 30.366 24.3883 30.2425C24.3444 30.119 24.3273 29.9878 24.3382 29.8574C24.3302 29.7277 24.3494 29.5977 24.3944 29.4755C24.4394 29.3533 24.5093 29.2415 24.5999 29.147C24.6904 29.0524 24.7997 28.9771 24.9209 28.9257C25.0421 28.8744 25.1726 28.848 25.3046 28.8482C25.6057 28.8523 25.8973 28.9525 26.1357 29.1338L26.4643 28.5816C26.144 28.3219 25.7385 28.1865 25.3239 28.2008C25.0977 28.1873 24.8712 28.2207 24.6589 28.2987C24.4466 28.3767 24.2532 28.4976 24.0912 28.6536C23.9292 28.8096 23.8021 28.9973 23.7181 29.2047C23.6342 29.412 23.5952 29.6344 23.6037 29.8574Z" fill="black"/>
<path d="M29.4022 28.277V28.6769C29.2876 28.522 29.1358 28.3975 28.9604 28.3144C28.7851 28.2314 28.5916 28.1923 28.3972 28.2009C27.9512 28.2009 27.5235 28.3754 27.2081 28.6861C26.8927 28.9968 26.7156 29.4181 26.7156 29.8575C26.7156 30.2969 26.8927 30.7182 27.2081 31.0289C27.5235 31.3396 27.9512 31.5141 28.3972 31.5141C28.5899 31.5248 28.7823 31.4887 28.9575 31.409C29.1328 31.3294 29.2855 31.2085 29.4022 31.0571V31.438H30.0981V28.277H29.4022ZM28.4938 30.8667C28.2891 30.8781 28.0857 30.8288 27.9097 30.7251C27.7338 30.6214 27.5935 30.468 27.507 30.2849C27.4205 30.1018 27.3918 29.8974 27.4245 29.698C27.4573 29.4986 27.55 29.3135 27.6907 29.1666C27.8313 29.0197 28.0135 28.9177 28.2137 28.8739C28.4138 28.8301 28.6227 28.8465 28.8132 28.9209C29.0038 28.9953 29.1674 29.1243 29.2827 29.2913C29.3981 29.4583 29.4599 29.6555 29.4602 29.8575C29.4681 29.9826 29.4508 30.1079 29.4093 30.2264C29.3679 30.3449 29.3031 30.4542 29.2187 30.5479C29.1343 30.6417 29.032 30.7181 28.9175 30.7728C28.8031 30.8275 28.6788 30.8594 28.5518 30.8667H28.4938Z" fill="black"/>
<path d="M20.7044 29.8575C20.6813 29.5552 20.5682 29.2663 20.3794 29.0269C20.1905 28.7875 19.9343 28.6083 19.6426 28.5116C19.3509 28.4149 19.0368 28.405 18.7395 28.4832C18.4421 28.5614 18.1748 28.7242 17.9708 28.9512C17.7669 29.1782 17.6354 29.4594 17.5927 29.7597C17.5501 30.0599 17.5982 30.3659 17.7311 30.6393C17.8639 30.9128 18.0756 31.1416 18.3398 31.2972C18.6039 31.4528 18.9087 31.5282 19.2161 31.5141C19.6941 31.5334 20.1625 31.3774 20.5304 31.0762L20.2019 30.562C19.9377 30.771 19.6126 30.8912 19.2741 30.9048C19.0411 30.9261 18.8091 30.8561 18.6282 30.7099C18.4472 30.5638 18.3321 30.3533 18.3077 30.1241H20.6851C20.6851 30.1241 20.7044 29.9527 20.7044 29.8575ZM18.3077 29.5909C18.3224 29.3787 18.4184 29.18 18.5764 29.0351C18.7343 28.8901 18.9423 28.8097 19.1581 28.8102C19.622 28.8102 19.8926 29.0958 19.9699 29.5909H18.3077Z" fill="black"/>
<path d="M35.9161 27.0203V28.6769C35.8014 28.522 35.6497 28.3975 35.4743 28.3144C35.2989 28.2313 35.1054 28.1923 34.911 28.2008C34.465 28.2008 34.0373 28.3754 33.7219 28.6861C33.4066 28.9967 33.2294 29.4181 33.2294 29.8575C33.2294 30.2968 33.4066 30.7182 33.7219 31.0289C34.0373 31.3396 34.465 31.5141 34.911 31.5141C35.1037 31.5248 35.2961 31.4887 35.4714 31.409C35.6466 31.3294 35.7993 31.2085 35.9161 31.0571V31.4379H36.6312V27.0203H35.9161ZM35.0076 30.8286C34.736 30.8286 34.4754 30.7223 34.2833 30.533C34.0912 30.3437 33.9832 30.0871 33.9832 29.8194C33.9832 29.5517 34.0912 29.295 34.2833 29.1058C34.4754 28.9165 34.736 28.8102 35.0076 28.8102C35.2793 28.8102 35.5399 28.9165 35.732 29.1058C35.9241 29.295 36.0321 29.5517 36.0321 29.8194C36.0321 30.0871 35.9241 30.3437 35.732 30.533C35.5399 30.7223 35.2793 30.8286 35.0076 30.8286Z" fill="black"/>
<path d="M9.84181 28.2769V28.6768C9.72082 28.524 9.56508 28.4013 9.38715 28.3186C9.20922 28.2359 9.01407 28.1956 8.8174 28.2008C8.37142 28.2008 7.94371 28.3753 7.62835 28.686C7.31299 28.9967 7.13583 29.418 7.13583 29.8574C7.13583 30.2968 7.31299 30.7181 7.62835 31.0288C7.94371 31.3395 8.37142 31.514 8.8174 31.514C9.01266 31.523 9.2073 31.4863 9.38536 31.4068C9.56343 31.3274 9.71985 31.2075 9.84181 31.057V31.4379H10.5376V28.2769H9.84181ZM8.91405 30.8666C8.70937 30.878 8.50592 30.8287 8.33 30.725C8.15409 30.6213 8.01381 30.4679 7.92731 30.2848C7.84081 30.1017 7.81207 29.8973 7.8448 29.6979C7.87753 29.4985 7.97023 29.3134 8.11091 29.1665C8.2516 29.0196 8.43378 28.9176 8.63391 28.8738C8.83405 28.83 9.04292 28.8464 9.2335 28.9208C9.42409 28.9952 9.58763 29.1243 9.70297 29.2912C9.81831 29.4582 9.88015 29.6554 9.88048 29.8574C9.88839 29.9872 9.86926 30.1171 9.82425 30.2393C9.77924 30.3615 9.7093 30.4733 9.61876 30.5679C9.52821 30.6624 9.41898 30.7377 9.29778 30.7891C9.17659 30.8405 9.04599 30.8668 8.91405 30.8666Z" fill="black"/>
<path d="M37.7909 30.9808H37.9069C37.977 31.0246 38.0364 31.0831 38.0808 31.1522C38.0899 31.1898 38.0899 31.2289 38.0808 31.2665C38.0915 31.3103 38.0915 31.3559 38.0808 31.3998V31.495H37.8296V31.3998C37.8189 31.3559 37.8189 31.3103 37.8296 31.2665C37.8205 31.2289 37.8205 31.1898 37.8296 31.1522C37.8739 31.0831 37.9334 31.0246 38.0035 30.9808H37.7909Z" fill="black"/>
<path d="M37.7908 31.1522V31.2665L37.6942 31.1522V31.2665V30.9808L37.7908 31.1522Z" fill="black"/>
</svg>
