<svg width="21" height="19" viewBox="0 0 21 19" fill="none" xmlns="http://www.w3.org/2000/svg">
<path d="M15.8695 11.77C15.737 11.8968 15.6383 12.0547 15.5824 12.2293C15.5265 12.404 15.5152 12.5898 15.5495 12.77L16.4395 17.69C16.4761 17.8943 16.4532 18.1047 16.3734 18.2962C16.2936 18.4878 16.1603 18.6522 15.9895 18.77C15.8218 18.8923 15.623 18.9648 15.416 18.9789C15.2089 18.9931 15.0022 18.9484 14.8195 18.85L10.3894 16.54C10.235 16.4586 10.0639 16.4141 9.88943 16.41H9.66946C9.57369 16.4187 9.48124 16.4495 9.39944 16.5L4.96944 18.82C4.75017 18.9302 4.50183 18.9687 4.25948 18.93C3.97472 18.8764 3.72217 18.7135 3.55587 18.4762C3.38957 18.2389 3.32269 17.946 3.36947 17.66L4.25948 12.74C4.29192 12.5599 4.27969 12.3745 4.2239 12.2002C4.16811 12.0258 4.07047 11.8679 3.93948 11.74L0.329429 8.24002C0.181421 8.09698 0.0773984 7.91458 0.0295634 7.71439C-0.0182716 7.51419 -0.00788488 7.30452 0.0594706 7.11002C0.125823 6.91602 0.243693 6.74372 0.400474 6.6116C0.557255 6.47948 0.747054 6.39253 0.949485 6.36002L5.94949 5.63998C6.13571 5.62077 6.314 5.5548 6.46786 5.44815C6.62172 5.3415 6.74609 5.19764 6.82943 5.03L9.01943 0.540009C9.07117 0.439856 9.13872 0.3487 9.21944 0.27002L9.30947 0.200012C9.3561 0.14902 9.40999 0.105207 9.46944 0.0700073H9.57943L9.74947 0H10.1695C10.3539 0.0208126 10.5305 0.086354 10.6839 0.190918C10.8372 0.295482 10.9627 0.435911 11.0495 0.600006L13.2694 5.07001C13.3468 5.23223 13.4631 5.37279 13.6079 5.47922C13.7527 5.58564 13.9215 5.65465 14.0994 5.68002L19.0994 6.39999C19.3055 6.4291 19.4995 6.51454 19.6601 6.64688C19.8206 6.77922 19.9416 6.95332 20.0095 7.14999C20.0732 7.34647 20.0797 7.55699 20.0283 7.75705C19.977 7.95711 19.8699 8.13847 19.7194 8.28L15.8695 11.77Z" fill="white"/>
</svg>
