<svg width="13" height="14" viewBox="0 0 13 14" fill="none" xmlns="http://www.w3.org/2000/svg">
<g clip-path="url(#clip0_171_529)">
<path d="M1.04311 9.18891C1.83903 9.18891 2.62052 9.05485 3.36108 8.79129C3.72396 8.658 4.17005 8.78028 4.39153 9.02525L5.85325 10.2136C7.54843 9.23907 8.59263 8.11492 9.48516 6.30305L8.41418 4.7699C8.13593 4.47065 8.03613 4.03352 8.15571 3.62336C8.40149 2.82164 8.52634 1.98044 8.52634 1.12294C8.52631 0.503475 8.99427 -0.000488281 9.56946 -0.000488281H11.9569C12.532 -0.000488281 13 0.503475 13 1.1229C13 8.22316 7.63621 13.9995 1.04311 13.9995C0.467933 13.9995 -3.43323e-05 13.4955 -3.43323e-05 12.8761V10.3123C-9.53674e-07 9.69287 0.467966 9.18891 1.04311 9.18891Z" fill="#009C80"/>
</g>
<defs>
<clipPath id="clip0_171_529">
<rect width="13" height="14" fill="white" transform="matrix(-1 0 0 1 13 -0.000488281)"/>
</clipPath>
</defs>
</svg>
