<svg width="53" height="19" viewBox="0 0 53 19" fill="none" xmlns="http://www.w3.org/2000/svg">
<path d="M33.2169 3.80029H34.5892C34.9737 3.80029 35.3424 3.95076 35.6142 4.21859C35.8861 4.48641 36.0388 4.84966 36.0388 5.22842V13.0355M22.1996 17.7198V7.28493C22.1996 6.36075 22.5723 5.47442 23.2356 4.82092C23.899 4.16742 24.7986 3.80029 25.7367 3.80029H28.8873C29.8119 3.82021 30.6919 4.19611 31.3386 4.84746C31.9853 5.49881 32.3473 6.3738 32.3471 7.28493V9.51281C32.3471 10.437 31.9744 11.3233 31.3111 11.9768C30.6477 12.6303 29.7481 12.9974 28.81 12.9974H24.3837L22.1996 17.7198Z" stroke="black" stroke-width="0.34" stroke-linecap="round" stroke-linejoin="round"/>
<path d="M35.8068 2.58156L35.1883 1.97223C35.1508 1.93834 35.1209 1.89714 35.1004 1.85125C35.0799 1.80536 35.0693 1.75577 35.0693 1.70564C35.0693 1.65551 35.0799 1.60593 35.1004 1.56004C35.1209 1.51415 35.1508 1.47295 35.1883 1.43906L35.8068 0.829726C35.8412 0.792789 35.883 0.763295 35.9296 0.74312C35.9762 0.722945 36.0265 0.712524 36.0774 0.712524C36.1283 0.712524 36.1786 0.722945 36.2252 0.74312C36.2718 0.763295 36.3136 0.792789 36.348 0.829726L36.9665 1.43906C37.004 1.47295 37.034 1.51415 37.0544 1.56004C37.0749 1.60593 37.0855 1.65551 37.0855 1.70564C37.0855 1.75577 37.0749 1.80536 37.0544 1.85125C37.034 1.89714 37.004 1.93834 36.9665 1.97223L36.348 2.58156C36.3136 2.6185 36.2718 2.64799 36.2252 2.66817C36.1786 2.68834 36.1283 2.69876 36.0774 2.69876C36.0265 2.69876 35.9762 2.68834 35.9296 2.66817C35.883 2.64799 35.8412 2.6185 35.8068 2.58156Z" fill="black"/>
<path d="M38.8607 12.9784H40.0784C40.4361 12.9867 40.7918 12.9234 41.124 12.7925C41.4562 12.6616 41.758 12.4657 42.0113 12.2167L45.1618 9.11292C45.3605 8.92102 45.6277 8.81354 45.906 8.81354C46.1842 8.81354 46.4514 8.92102 46.6501 9.11292L49.7427 12.1977C49.9945 12.4485 50.2961 12.6456 50.6287 12.7766C50.9612 12.9077 51.3175 12.9699 51.6755 12.9593H52.7773M38.7061 3.78124H40.0784C40.4361 3.77296 40.7918 3.83619 41.124 3.9671C41.4562 4.09801 41.758 4.29389 42.0113 4.54291L45.1618 7.6467C45.3605 7.8386 45.6277 7.94608 45.906 7.94608C46.1842 7.94608 46.4514 7.8386 46.6501 7.6467L49.7427 4.56195C49.9945 4.31111 50.2961 4.11403 50.6287 3.983C50.9612 3.85196 51.3175 3.78976 51.6755 3.80027H52.7773L38.7061 3.78124Z" stroke="black" stroke-width="0.34" stroke-linecap="round" stroke-linejoin="round"/>
<path d="M14.1783 14.9587C13.8437 14.9581 13.5126 14.8921 13.204 14.7647C12.8955 14.6372 12.6157 14.4508 12.3807 14.2161L9.79071 11.6836C9.74732 11.638 9.69493 11.6017 9.63675 11.5769C9.57858 11.5521 9.51585 11.5393 9.45245 11.5393C9.38906 11.5393 9.32633 11.5521 9.26815 11.5769C9.20997 11.6017 9.15758 11.638 9.1142 11.6836L6.50487 14.2352C6.27388 14.4684 5.99709 14.6529 5.69136 14.7773C5.38564 14.9017 5.05739 14.9634 4.72665 14.9587H4.20477L7.49061 18.1958C7.98332 18.6796 8.65057 18.9512 9.34616 18.9512C10.0418 18.9512 10.709 18.6796 11.2017 18.1958L14.4875 14.9587H14.1783Z" fill="black"/>
<path d="M4.72665 5.93298C5.05862 5.93188 5.38734 5.99712 5.69299 6.12476C5.99863 6.25241 6.27484 6.4398 6.50487 6.67561L9.15286 9.2272C9.19625 9.27274 9.24864 9.30904 9.30682 9.33385C9.36499 9.35866 9.42772 9.37146 9.49112 9.37146C9.55451 9.37146 9.61721 9.35866 9.67539 9.33385C9.73357 9.30904 9.78599 9.27274 9.82937 9.2272L12.4194 6.67561C12.9006 6.21389 13.5452 5.95443 14.2169 5.95202H14.5262L11.2403 2.71493C10.7476 2.2312 10.0804 1.95959 9.3848 1.95959C8.6892 1.95959 8.02199 2.2312 7.52928 2.71493L4.24344 5.93298H4.72665Z" fill="black"/>
<path d="M17.1935 8.63697L15.2607 6.7328H14.2169C13.9834 6.73202 13.752 6.77708 13.5363 6.86536C13.3206 6.95363 13.1249 7.08334 12.9606 7.24693L10.3706 9.79852C10.1313 10.0255 9.81359 10.1547 9.48146 10.1603C9.15481 10.1557 8.84284 10.0259 8.61168 9.79852L6.02167 7.24693C5.68743 6.92002 5.23628 6.7354 4.7653 6.7328H3.64425H3.50896L1.57611 8.63697C1.33358 8.8757 1.14118 9.15919 1.00991 9.47122C0.878636 9.78324 0.811066 10.1177 0.811066 10.4555C0.811066 10.7932 0.878636 11.1277 1.00991 11.4397C1.14118 11.7517 1.33358 12.0352 1.57611 12.2739L3.50896 14.1781H4.7653C5.23628 14.1755 5.68743 13.9909 6.02167 13.664L8.61168 11.1124C8.84885 10.89 9.16373 10.766 9.49113 10.766C9.81854 10.766 10.1334 10.89 10.3706 11.1124L13.0186 13.7021C13.1844 13.8622 13.3809 13.9884 13.5965 14.0734C13.8121 14.1584 14.0427 14.2004 14.2749 14.1972H15.164H15.3187L17.2515 12.293C17.4941 12.0543 17.6865 11.7708 17.8177 11.4587C17.949 11.1467 18.0166 10.8123 18.0166 10.4745C18.0166 10.1367 17.949 9.80228 17.8177 9.49025C17.6865 9.17823 17.4941 8.89475 17.2515 8.65602L17.1935 8.63697Z" fill="black"/>
<path d="M24.9056 16.8439C24.7451 16.8256 24.5829 16.8256 24.4224 16.8439V17.4913C24.5441 17.5096 24.6679 17.5096 24.7896 17.4913C25.1182 17.4913 25.2729 17.377 25.2729 17.1104C25.2729 16.8439 25.1569 16.7106 24.9056 16.7106V16.8439ZM24.3064 18.0435V16.7677C24.4735 16.7508 24.6419 16.7508 24.809 16.7677C24.9215 16.7285 25.0443 16.7285 25.1569 16.7677C25.2058 16.8218 25.2431 16.8851 25.2664 16.9539C25.2896 17.0227 25.2984 17.0954 25.2922 17.1676C25.2949 17.2467 25.2768 17.3251 25.2395 17.3952C25.2022 17.4653 25.1471 17.5246 25.0796 17.5674C24.9591 17.5981 24.8328 17.5981 24.7123 17.5674C24.5842 17.5859 24.4539 17.5859 24.3258 17.5674V17.9483L24.3064 18.0435Z" fill="black"/>
<path d="M26.2006 16.8439C25.872 16.8439 25.7367 16.9581 25.7367 17.2247C25.7367 17.4913 25.872 17.6246 26.2006 17.6246C26.5292 17.6246 26.6645 17.5294 26.6645 17.2437C26.6645 16.9581 26.5292 16.8439 26.2006 16.8439ZM26.5485 17.7198C26.4099 17.7611 26.2619 17.7611 26.1233 17.7198C25.9912 17.7607 25.8495 17.7607 25.7174 17.7198C25.6556 17.6783 25.6066 17.6207 25.5759 17.5535C25.5452 17.4863 25.534 17.4121 25.5434 17.339C25.5346 17.2631 25.546 17.1864 25.5765 17.1162C25.607 17.0461 25.6556 16.985 25.7174 16.9391C25.8495 16.8981 25.9912 16.8981 26.1233 16.9391C26.2619 16.8978 26.4099 16.8978 26.5485 16.9391C26.6042 16.9892 26.6472 17.0515 26.674 17.1209C26.7009 17.1904 26.7109 17.265 26.7032 17.339C26.7109 17.41 26.7009 17.4819 26.6739 17.5483C26.6469 17.6147 26.6039 17.6736 26.5485 17.7198Z" fill="black"/>
<path d="M28.1528 17.7007L27.7855 16.9391L27.4183 17.7007H27.3217L26.9351 16.7867H27.0704L27.3796 17.5484H27.399L27.7469 16.7867H27.8435L28.1914 17.5484H28.2107L28.52 16.7867H28.636L28.2494 17.7007H28.1528Z" fill="black"/>
<path d="M29.3512 16.8439C29.0419 16.8439 28.9453 16.9772 28.926 17.1676H29.7571C29.7571 16.9581 29.6411 16.8439 29.3512 16.8439ZM29.3512 17.7198C29.2261 17.7634 29.0897 17.7634 28.9646 17.7198C28.9172 17.6686 28.8807 17.6084 28.8575 17.543C28.8342 17.4775 28.8246 17.4081 28.8293 17.339C28.8223 17.2633 28.8345 17.1871 28.8649 17.1173C28.8953 17.0475 28.9429 16.9862 29.0033 16.9391C29.1225 16.8999 29.2514 16.8999 29.3705 16.9391C29.4905 16.9047 29.6178 16.9047 29.7378 16.9391C29.8731 16.9391 29.8924 17.1866 29.8924 17.358H28.9453C28.9453 17.5484 28.9453 17.7198 29.3705 17.7198C29.5314 17.7302 29.6929 17.7302 29.8538 17.7198C29.6868 17.7395 29.5181 17.7395 29.3512 17.7198Z" fill="black"/>
<path d="M30.1823 17.7199V16.7679H30.2789C30.4331 16.751 30.5886 16.751 30.7428 16.7679C30.5955 16.745 30.4455 16.745 30.2982 16.7679V17.7199H30.1823Z" fill="black"/>
<path d="M31.3999 16.8439C31.11 16.8439 30.994 16.9772 30.9747 17.1676H31.8252C31.8252 16.9581 31.7092 16.8439 31.3999 16.8439ZM31.3999 17.7198C31.2749 17.7634 31.1384 17.7634 31.0134 17.7198C30.9593 17.6726 30.9171 17.6135 30.8903 17.5474C30.8634 17.4813 30.8526 17.4099 30.8588 17.339C30.8563 17.2638 30.8706 17.1891 30.9007 17.12C30.9307 17.0509 30.9758 16.9892 31.0327 16.9391C31.1523 16.9025 31.2804 16.9025 31.3999 16.9391C31.5264 16.9041 31.6601 16.9041 31.7865 16.9391C31.9218 16.9391 31.9411 17.1866 31.9411 17.358H30.9747C30.9747 17.5484 30.9747 17.7198 31.3999 17.7198C31.5673 17.7302 31.7352 17.7302 31.9025 17.7198C31.7355 17.7385 31.5669 17.7385 31.3999 17.7198Z" fill="black"/>
<path d="M33.1395 16.9201C33.0123 16.8916 32.8802 16.8916 32.7529 16.9201C32.4437 16.9201 32.289 17.0344 32.289 17.32C32.289 17.6056 32.405 17.7008 32.6563 17.7008C32.817 17.7163 32.9788 17.7163 33.1395 17.7008V17.0725V16.9201ZM33.1395 17.7008C32.9726 17.7206 32.8039 17.7206 32.6369 17.7008C32.5305 17.7371 32.4148 17.7371 32.3084 17.7008C32.2577 17.6518 32.2192 17.592 32.1958 17.5259C32.1723 17.4599 32.1645 17.3895 32.1731 17.32C32.1627 17.2394 32.1752 17.1575 32.2094 17.0835C32.2435 17.0095 32.2978 16.9464 32.3663 16.9011C32.4936 16.8725 32.6257 16.8725 32.7529 16.9011C32.8811 16.8826 33.0113 16.8826 33.1395 16.9011V16.387H33.2555V17.7199L33.1395 17.7008Z" fill="black"/>
<path d="M34.8597 16.844C34.6926 16.827 34.5242 16.827 34.3571 16.844V17.4914C34.4853 17.5099 34.6156 17.5099 34.7437 17.4914C35.0723 17.4914 35.227 17.3771 35.227 17.1106C35.227 16.844 35.0916 16.7107 34.8597 16.7107V16.844ZM35.1303 17.6437C35.0096 17.672 34.8838 17.672 34.7631 17.6437C34.622 17.6635 34.4789 17.6635 34.3378 17.6437V16.387V16.8249C34.5049 16.808 34.6733 16.808 34.8404 16.8249C34.9468 16.7886 35.0625 16.7886 35.169 16.8249C35.2246 16.8751 35.2676 16.9373 35.2945 17.0068C35.3213 17.0762 35.3313 17.1509 35.3236 17.2248C35.3263 17.3039 35.3082 17.3823 35.2709 17.4524C35.2336 17.5225 35.1785 17.5819 35.111 17.6247L35.1303 17.6437Z" fill="black"/>
<path d="M35.4783 18.0436V17.9484H35.6136C35.679 17.9531 35.7442 17.9371 35.7998 17.9029C35.8554 17.8687 35.8985 17.8179 35.9229 17.758L35.4397 16.825H35.575L35.9809 17.6247L36.3674 16.825H36.5027L35.9809 17.8723C35.9511 17.9523 35.8949 18.0202 35.8213 18.0651C35.7477 18.11 35.661 18.1293 35.575 18.1198L35.4783 18.0436Z" fill="black"/>
<path d="M38.1457 17.1678H37.7784V17.4915H38.1457C38.3969 17.4915 38.4936 17.4915 38.4936 17.3391C38.4936 17.1868 38.3583 17.1678 38.1457 17.1678ZM38.1457 16.6536H37.8557V16.9773H38.1457C38.3969 16.9773 38.4936 16.9773 38.4936 16.806C38.4936 16.6346 38.3776 16.6536 38.1457 16.6536ZM38.7062 17.6057C38.5902 17.7009 38.4163 17.7009 38.1263 17.7009H37.5658V16.4442H38.107C38.2841 16.3964 38.471 16.3964 38.6482 16.4442C38.6905 16.4704 38.7252 16.507 38.7489 16.5504C38.7726 16.5938 38.7845 16.6425 38.7835 16.6917C38.7871 16.7535 38.7701 16.8148 38.7353 16.8663C38.7004 16.9178 38.6495 16.9568 38.5902 16.9773C38.6637 16.9869 38.7307 17.0237 38.7774 17.0804C38.8241 17.1371 38.8471 17.2092 38.8415 17.282C38.8446 17.3316 38.8336 17.381 38.8097 17.4248C38.7858 17.4685 38.7499 17.5048 38.7062 17.5295V17.6057Z" fill="black"/>
<path d="M39.7884 17.32H39.4405C39.2666 17.32 39.1892 17.32 39.1892 17.4343C39.1892 17.5485 39.1892 17.5675 39.4019 17.5675H39.7884V17.3962V17.32ZM39.7884 17.7008C39.6215 17.7206 39.4528 17.7206 39.2859 17.7008C39.1915 17.7301 39.0903 17.7301 38.996 17.7008C38.9343 17.6403 38.8995 17.5581 38.8993 17.4723C38.8919 17.4198 38.9033 17.3664 38.9315 17.3212C38.9597 17.2761 39.003 17.242 39.054 17.2248C39.1681 17.1958 39.2878 17.1958 39.4019 17.2248H39.7498C39.7498 17.0725 39.7498 17.0344 39.3825 17.0344H39.0346V16.844H39.4405C39.5857 16.8022 39.7399 16.8022 39.8851 16.844C39.9285 16.8813 39.9619 16.9287 39.9821 16.9819C40.0023 17.0351 40.0089 17.0924 40.0011 17.1486V17.7199L39.7884 17.7008Z" fill="black"/>
<path d="M41.2767 17.7196V17.2055C41.2767 17.0341 41.1801 16.977 41.0255 16.977H40.6389V17.7196H40.3876V16.7676H40.6002C40.7673 16.7506 40.9357 16.7506 41.1028 16.7676C41.2092 16.7313 41.3249 16.7313 41.4314 16.7676C41.4685 16.8048 41.4965 16.8499 41.5132 16.8994C41.53 16.9489 41.535 17.0015 41.528 17.0532V17.7196H41.2767Z" fill="black"/>
<path d="M42.2625 17.7197C42.1495 17.7561 42.0276 17.7561 41.9146 17.7197C41.864 17.6707 41.8254 17.6109 41.802 17.5448C41.7785 17.4788 41.7708 17.4084 41.7793 17.3389C41.7723 17.2633 41.7845 17.1871 41.8149 17.1173C41.8452 17.0475 41.8928 16.9862 41.9533 16.939C42.0922 16.8999 42.2395 16.8999 42.3785 16.939H42.7071V17.1294H42.3978C42.1659 17.1294 42.0306 17.1295 42.0306 17.4151C42.0306 17.7007 42.1272 17.7007 42.3398 17.7007H42.7264V17.7197C42.5723 17.7381 42.4166 17.7381 42.2625 17.7197Z" fill="black"/>
<path d="M43.4996 16.9389C43.2483 16.9389 43.1323 16.939 43.1323 17.2246C43.1323 17.5102 43.2483 17.5292 43.4996 17.5292C43.7509 17.5292 43.8475 17.5292 43.8475 17.2436C43.8475 16.958 43.8475 16.9389 43.4996 16.9389ZM43.9441 17.7197C43.799 17.7614 43.6447 17.7614 43.4996 17.7197C43.3552 17.7662 43.1994 17.7662 43.055 17.7197C42.9912 17.679 42.9396 17.6222 42.9056 17.5552C42.8716 17.4883 42.8565 17.4135 42.8617 17.3388C42.8569 17.2615 42.8721 17.1842 42.9059 17.1143C42.9397 17.0443 42.991 16.984 43.055 16.9389C43.1994 16.8924 43.3552 16.8924 43.4996 16.9389C43.6447 16.8972 43.799 16.8972 43.9441 16.9389C44.006 16.9849 44.0546 17.046 44.0851 17.1161C44.1156 17.1862 44.127 17.263 44.1181 17.3388C44.1275 17.4119 44.1163 17.4862 44.0856 17.5534C44.0549 17.6206 44.0059 17.6781 43.9441 17.7197Z" fill="black"/>
<path d="M45.6257 17.7198C45.4656 17.734 45.3062 17.6862 45.1812 17.5865C45.1069 17.5235 45.0489 17.4441 45.012 17.3547C44.975 17.2653 44.9601 17.1686 44.9686 17.0724C44.9616 16.9679 44.983 16.8634 45.0305 16.7697C45.0781 16.676 45.1501 16.5964 45.2392 16.5392C45.3984 16.4526 45.5796 16.4129 45.761 16.425H46.2056V16.6535H45.877C45.5098 16.6535 45.3551 16.7868 45.3551 17.0724C45.349 17.1289 45.3559 17.186 45.3751 17.2395C45.3943 17.2931 45.4254 17.3417 45.4662 17.3819C45.507 17.4221 45.5564 17.4527 45.6107 17.4717C45.6651 17.4906 45.723 17.4973 45.7804 17.4913C45.9668 17.5086 46.1545 17.5086 46.3409 17.4913V17.7198C46.1352 17.7396 45.9281 17.7396 45.7224 17.7198H45.6257Z" fill="black"/>
<path d="M47.0173 16.92C46.7854 16.92 46.7081 16.92 46.6887 17.1294H47.3266C47.3266 16.9771 47.2299 16.92 47.0173 16.92ZM47.0173 17.7197C46.8852 17.7607 46.7436 17.7607 46.6114 17.7197C46.5573 17.6725 46.5152 17.6135 46.4883 17.5474C46.4615 17.4813 46.4507 17.4099 46.4568 17.3389C46.4544 17.2638 46.4687 17.189 46.4987 17.12C46.5288 17.0509 46.5739 16.9891 46.6308 16.939C46.7697 16.8999 46.917 16.8999 47.056 16.939C47.189 16.9043 47.3289 16.9043 47.4619 16.939C47.5236 16.997 47.5699 17.0689 47.5969 17.1486C47.6238 17.2283 47.6306 17.3132 47.6165 17.396H46.7274C46.7274 17.5293 46.7274 17.6245 47.0753 17.6245H47.5779V17.7197H47.0173Z" fill="black"/>
<path d="M48.7376 17.7198V17.2057C48.7376 17.0343 48.7376 16.9772 48.5056 16.9772H48.1191V17.7198H47.8098V16.7677H48.0224C48.1894 16.7493 48.358 16.7493 48.525 16.7677C48.6244 16.7295 48.7348 16.7295 48.8342 16.7677C48.8737 16.804 48.9045 16.8484 48.9246 16.8978C48.9446 16.9471 48.9534 17.0002 48.9502 17.0533V17.7198H48.7376Z" fill="black"/>
<path d="M49.7426 17.7198C49.6842 17.722 49.626 17.7112 49.5724 17.6881C49.5189 17.665 49.4713 17.6303 49.4333 17.5865C49.4086 17.4993 49.4086 17.4071 49.4333 17.3199V16.9581H49.2401V16.7677H49.4333V16.5011H49.6653V16.7677H50.0325V16.9581H49.6653V17.2628C49.6521 17.3191 49.6521 17.3778 49.6653 17.4341C49.6653 17.4341 49.6653 17.4341 49.8393 17.4341H50.0132V17.7198H49.7426Z" fill="black"/>
<path d="M50.2646 17.7197V16.7676H50.4772C50.6314 16.7508 50.7869 16.7508 50.9411 16.7676V16.9961C50.8193 16.9792 50.6956 16.9792 50.5738 16.9961V17.7197H50.2646Z" fill="black"/>
<path d="M51.9268 17.32H51.6756C51.4823 17.32 51.405 17.32 51.405 17.4342C51.405 17.5485 51.405 17.5675 51.6176 17.5675H52.0041V17.3961L51.9268 17.32ZM51.9268 17.7008C51.7599 17.7206 51.5912 17.7206 51.4243 17.7008C51.3367 17.7313 51.2412 17.7313 51.1537 17.7008C51.1165 17.6753 51.0864 17.6411 51.0661 17.6011C51.0458 17.5612 51.0361 17.5169 51.0377 17.4723C51.0337 17.4203 51.0465 17.3683 51.0743 17.3238C51.102 17.2794 51.1434 17.2447 51.1923 17.2248C51.3064 17.1957 51.4261 17.1957 51.5402 17.2248H51.8882C51.8882 17.0724 51.8882 17.0343 51.5209 17.0343H51.1923V16.8439H51.5789C51.7237 16.7999 51.8786 16.7999 52.0235 16.8439C52.0691 16.8804 52.1052 16.927 52.1287 16.98C52.1523 17.0331 52.1626 17.0909 52.1588 17.1486V17.7199L51.9268 17.7008Z" fill="black"/>
<path d="M52.5259 16.387H52.7772V17.7008H52.5259V16.387Z" fill="black"/>
</svg>
