<svg width="20" height="20" viewBox="0 0 20 20" fill="none" xmlns="http://www.w3.org/2000/svg">
<path d="M9.96741 19.9325C9.57259 19.9347 9.18119 19.8591 8.81567 19.7098C8.45016 19.5605 8.11772 19.3405 7.8374 19.0625L7.10736 18.3325C6.82633 18.0511 6.44505 17.8928 6.04736 17.8925H5.04736C4.25171 17.8925 3.4887 17.5764 2.92609 17.0138C2.36348 16.4512 2.04736 15.6881 2.04736 14.8925V13.8925C2.04747 13.4917 1.88934 13.1072 1.60736 12.8224L0.88739 12.1125C0.606205 11.8336 0.383019 11.5018 0.230713 11.1362C0.0784069 10.7706 0 10.3785 0 9.98245C0 9.58642 0.0784069 9.19431 0.230713 8.82874C0.383019 8.46316 0.606205 8.13134 0.88739 7.85245L1.61737 7.12247C1.75789 6.98212 1.86917 6.81527 1.9447 6.63159C2.02023 6.44791 2.05852 6.25106 2.05737 6.05246V5.05246C2.05737 4.25681 2.37343 3.49376 2.93604 2.93115C3.49864 2.36854 4.26172 2.05246 5.05737 2.05246H6.05737C6.45506 2.05211 6.83634 1.89384 7.11737 1.61246L7.8374 0.892456C8.11646 0.609759 8.44887 0.385287 8.81537 0.232086C9.18187 0.0788857 9.57512 0 9.97235 0C10.3696 0 10.7629 0.0788857 11.1294 0.232086C11.4959 0.385287 11.8283 0.609759 12.1074 0.892456L12.8374 1.62247C13.1184 1.90385 13.4997 2.06212 13.8974 2.06247H14.8974C15.693 2.06247 16.4561 2.37852 17.0187 2.94113C17.5813 3.50374 17.8974 4.26682 17.8974 5.06247V6.06247C17.8978 6.46016 18.056 6.84143 18.3374 7.12247L19.0574 7.84247C19.3371 8.12118 19.559 8.45236 19.7104 8.81702C19.8618 9.18167 19.9398 9.57263 19.9398 9.96747C19.9398 10.3623 19.8618 10.7533 19.7104 11.1179C19.559 11.4826 19.3371 11.8138 19.0574 12.0925L18.3474 12.8025C18.066 13.0835 17.9077 13.4648 17.9073 13.8625V14.8625C17.9073 15.6581 17.5913 16.4212 17.0287 16.9838C16.4661 17.5464 15.703 17.8625 14.9073 17.8625H13.9073C13.5097 17.8628 13.1284 18.0211 12.8474 18.3025L12.1274 19.0225C11.8468 19.3113 11.511 19.5408 11.14 19.6971C10.7689 19.8535 10.3701 19.9335 9.96741 19.9325ZM12.5474 11.6324C12.4323 11.6311 12.3181 11.6527 12.2114 11.6958C12.1047 11.7389 12.0076 11.8028 11.9257 11.8837C11.8439 11.9646 11.7789 12.061 11.7346 12.1672C11.6902 12.2734 11.6674 12.3874 11.6674 12.5025C11.6647 12.6179 11.6853 12.7327 11.7279 12.8401C11.7705 12.9474 11.8344 13.045 11.9156 13.1271C11.9968 13.2093 12.0937 13.2742 12.2005 13.3181C12.3073 13.3619 12.4219 13.3838 12.5374 13.3824C12.6524 13.3838 12.7667 13.3623 12.8734 13.3191C12.9801 13.276 13.0772 13.2121 13.1591 13.1312C13.2409 13.0503 13.3059 12.9539 13.3502 12.8477C13.3946 12.7415 13.4174 12.6275 13.4174 12.5125C13.4123 12.2833 13.319 12.065 13.1569 11.9029C12.9949 11.7409 12.7765 11.6475 12.5474 11.6425V11.6324ZM12.5474 6.49246C12.3163 6.4931 12.0943 6.58262 11.9274 6.74246L6.78735 11.8824C6.6237 12.0473 6.53186 12.2702 6.53186 12.5025C6.53186 12.7348 6.6237 12.9576 6.78735 13.1225C6.8657 13.2054 6.96035 13.2713 7.06531 13.316C7.17026 13.3607 7.28331 13.3834 7.3974 13.3824C7.51342 13.3867 7.62896 13.3656 7.73602 13.3207C7.84309 13.2758 7.93911 13.2082 8.0174 13.1225L13.1674 7.98245C13.331 7.81761 13.4229 7.59475 13.4229 7.36246C13.4229 7.13017 13.331 6.90731 13.1674 6.74246C13.0005 6.58262 12.7785 6.4931 12.5474 6.49246ZM7.40735 6.49246C7.19141 6.51558 6.99166 6.61774 6.8465 6.77927C6.70134 6.9408 6.62103 7.15029 6.62103 7.36746C6.62103 7.58463 6.70134 7.79413 6.8465 7.95566C6.99166 8.11719 7.19141 8.21934 7.40735 8.24246C7.52244 8.24378 7.6367 8.22227 7.74341 8.17914C7.85012 8.13601 7.9472 8.07213 8.02905 7.99121C8.1109 7.91029 8.17587 7.81394 8.22021 7.70773C8.26456 7.60152 8.28736 7.48756 8.28735 7.37247C8.28873 7.25568 8.2666 7.13978 8.22223 7.03174C8.17786 6.92369 8.11217 6.82571 8.02911 6.74359C7.94606 6.66147 7.84737 6.59689 7.73883 6.55374C7.63029 6.5106 7.51417 6.48977 7.3974 6.49246H7.40735Z" fill="white"/>
</svg>
