<svg width="21" height="21" viewBox="0 0 21 21" fill="none" xmlns="http://www.w3.org/2000/svg">
<path d="M9.74003 19.48C7.81364 19.48 5.93051 18.9088 4.32877 17.8385C2.72704 16.7683 1.47857 15.2471 0.741371 13.4673C0.0041737 11.6876 -0.188648 9.72918 0.187172 7.83981C0.562992 5.95043 1.49066 4.21491 2.85282 2.85274C4.21498 1.49058 5.95051 0.562976 7.83988 0.187156C9.72926 -0.188664 11.6876 0.00421894 13.4673 0.741416C15.2471 1.47861 16.7683 2.72702 17.8385 4.32876C18.9088 5.93049 19.48 7.81362 19.48 9.74001C19.48 12.3232 18.4538 14.8006 16.6272 16.6272C14.8006 18.4538 12.3232 19.48 9.74003 19.48ZM9.74003 1.48C8.11031 1.48 6.51721 1.96325 5.16215 2.86867C3.80709 3.7741 2.7509 5.06101 2.12724 6.56667C1.50357 8.07234 1.34042 9.72913 1.65836 11.3275C1.97631 12.9259 2.76111 14.3941 3.91349 15.5465C5.06588 16.6989 6.53408 17.4837 8.13248 17.8017C9.73089 18.1196 11.3877 17.9564 12.8933 17.3327C14.399 16.7091 15.6859 15.6529 16.5913 14.2979C17.4968 12.9428 17.98 11.3497 17.98 9.71999C17.9747 7.53808 17.1042 5.44731 15.5595 3.90633C14.0148 2.36536 11.922 1.49995 9.74003 1.49996V1.48Z" fill="black"/>
<path d="M19.51 20.7198C19.312 20.7155 19.1228 20.637 18.98 20.4998L15.46 16.9899C15.3275 16.8477 15.2554 16.6596 15.2588 16.4653C15.2622 16.271 15.341 16.0856 15.4784 15.9482C15.6158 15.8108 15.8012 15.7321 15.9955 15.7286C16.1898 15.7252 16.3778 15.7974 16.52 15.9299L20.0399 19.4398C20.1447 19.5447 20.2161 19.6783 20.245 19.8237C20.2739 19.9691 20.259 20.1198 20.2023 20.2568C20.1456 20.3937 20.0495 20.5108 19.9263 20.5933C19.803 20.6757 19.6582 20.7197 19.51 20.7198Z" fill="black"/>
</svg>
