<svg width="52" height="18" viewBox="0 0 52 18" fill="none" xmlns="http://www.w3.org/2000/svg">
<path d="M33.9795 0.617819C29.8239 0.617819 26.886 2.80761 26.8666 5.91142C26.8666 8.23451 28.9541 9.51031 30.5584 10.291C32.1626 11.0717 32.7425 11.5859 32.7425 12.1952C32.7425 13.2806 31.4282 13.7757 30.2105 13.7757C28.8727 13.802 27.5478 13.5148 26.3448 12.9378L25.7842 12.6712L25.2044 16.2701C26.6997 16.8499 28.2943 17.1408 29.9012 17.127C34.3081 17.127 37.188 14.9753 37.2267 11.643C37.2267 9.73881 36.125 8.42492 33.6896 7.26338C32.2206 6.52075 31.3122 6.02566 31.3315 5.3592C31.3508 4.69274 32.0853 3.96917 33.7282 3.96917C34.8194 3.94146 35.9028 4.15624 36.8981 4.59755L37.2654 4.76892L37.8452 1.28428C36.6109 0.823764 35.2992 0.597632 33.9795 0.617819ZM20.9134 0.903448L18.2654 16.9747H22.4791L25.1271 0.903448H20.9134ZM14.7477 0.903448L10.6114 11.8715L10.1668 9.64359C9.14732 6.76236 7.08191 4.35457 4.36826 2.88379L8.23395 16.9556H12.6795L19.3092 0.903448H14.7477ZM45.306 0.903448C44.8397 0.845898 44.3673 0.946557 43.9668 1.18884C43.5663 1.43113 43.2614 1.80059 43.1026 2.23636L36.8401 16.9556H41.2664L42.1555 14.5373H47.5481C47.6834 15.1086 48.07 16.9556 48.07 16.9556H51.9357L48.5339 0.903448H45.306ZM45.6153 5.24496L45.8859 6.63501L46.8716 11.2621H43.3732L45.0547 6.7683C45.0547 6.7683 45.3833 5.85429 45.6153 5.24496Z" fill="black"/>
<path d="M6.7843 0.903342H0V1.18897C2.27673 1.66013 4.39988 2.67858 6.18044 4.15365C7.96099 5.62872 9.34369 7.51462 10.2054 9.64349L8.73648 2.2553C8.63941 1.83525 8.38864 1.46516 8.03208 1.21576C7.67552 0.966358 7.23818 0.855132 6.80363 0.903342" fill="black"/>
</svg>
